<?xml version="1.0" standalone="no"?>
<!DOCTYPE svg PUBLIC "-//W3C//DTD SVG 20010904//EN"
 "http://www.w3.org/TR/2001/REC-SVG-20010904/DTD/svg10.dtd">
<svg version="1.0" xmlns="http://www.w3.org/2000/svg"
 width="2400.000000pt" height="2400.000000pt" viewBox="0 0 2400.000000 2400.000000"
 preserveAspectRatio="xMidYMid meet">
<metadata>
Created by potrace 1.14, written by Peter Selinger 2001-2017
</metadata>
<g transform="translate(0.000000,2400.000000) scale(0.100000,-0.100000)"
fill="#000000" stroke="none">
<path d="M0 12000 l0 -12000 12000 0 12000 0 0 12000 0 12000 -12000 0 -12000
0 0 -12000z m10488 1512 l-263 -2 -5082 5082 -5083 5083 132 132 133 133 5212
-5212 5213 -5213 -262 -3z m13327 10298 l130 -130 -5085 -5085 -5085 -5085
-265 0 -265 0 5215 5215 c2868 2868 5217 5215 5220 5215 3 0 64 -59 135 -130z
m-14868 -10850 c194 -47 356 -136 502 -276 l82 -77 -33 -35 c-18 -18 -77 -74
-131 -124 l-97 -91 -58 55 c-108 102 -240 175 -370 204 -109 24 -293 15 -384
-19 -208 -76 -366 -250 -414 -453 -20 -88 -21 -258 0 -345 44 -189 159 -329
338 -414 110 -52 177 -66 308 -66 207 0 343 56 514 211 l68 62 123 -129 123
-128 -36 -38 c-65 -68 -234 -189 -327 -234 -318 -153 -766 -128 -1052 59 -206
134 -345 328 -410 573 -23 88 -26 120 -27 270 -1 212 23 331 97 480 135 273
448 488 779 535 98 14 311 3 405 -20z m5294 -4 c205 -52 397 -181 532 -359
144 -188 207 -382 207 -631 0 -213 -53 -394 -161 -557 -237 -353 -622 -508
-1054 -422 -355 69 -659 360 -751 718 -154 601 223 1179 832 1275 97 15 286 4
395 -24z m-10437 -40 c261 -59 400 -228 413 -501 9 -182 -33 -303 -146 -416
-116 -115 -229 -155 -478 -166 l-153 -6 0 -409 0 -408 -180 0 -180 0 0 966 0
966 328 -5 c245 -4 344 -9 396 -21z m1146 -766 l0 -790 270 0 270 0 0 -175 0
-175 -452 2 -453 3 -3 963 -2 962 185 0 185 0 0 -790z m2100 -52 c178 -464
345 -898 371 -966 l47 -122 -191 2 -191 3 -75 198 -75 197 -395 -2 -395 -3
-77 -195 -77 -195 -191 -3 -191 -2 20 52 c11 29 178 463 372 965 l352 913 186
0 186 0 324 -842z m3850 662 l0 -180 -340 0 -340 0 0 -175 0 -175 340 0 340 0
0 -175 0 -175 -340 0 -340 0 0 -255 0 -255 340 0 340 0 0 -180 0 -180 -525 0
-525 0 0 965 0 965 525 0 525 0 0 -180z m720 -185 l0 -365 320 0 320 0 0 365
0 365 185 0 185 0 0 -965 0 -965 -185 0 -185 0 0 425 0 425 -320 0 -320 0 0
-425 0 -425 -185 0 -185 0 0 965 0 965 185 0 185 0 0 -365z m4080 -425 l0
-790 265 0 265 0 0 -175 0 -175 -450 0 -450 0 0 965 0 965 185 0 185 0 0 -790z
m1607 767 c222 -41 369 -118 492 -261 104 -119 165 -241 213 -416 28 -107 36
-380 14 -507 -35 -200 -111 -351 -245 -483 -98 -97 -182 -150 -293 -185 -131
-41 -190 -47 -590 -52 l-388 -6 0 968 0 967 358 -5 c251 -4 381 -10 439 -20z
m2143 -157 l0 -180 -345 0 -345 0 0 -175 0 -175 345 0 345 0 0 -175 0 -175
-345 0 -345 0 0 -255 0 -255 345 0 345 0 0 -180 0 -180 -525 0 -525 0 0 965 0
965 525 0 525 0 0 -180z m999 170 c171 -18 298 -73 380 -166 52 -59 97 -148
116 -225 19 -83 19 -238 0 -314 -37 -140 -131 -253 -269 -321 l-75 -37 21 -41
c11 -22 112 -213 224 -423 112 -211 204 -385 204 -388 0 -3 -89 -5 -197 -5
l-198 0 -216 408 c-166 312 -221 407 -235 407 -18 0 -19 -18 -22 -407 l-2
-408 -180 0 -180 0 0 965 0 965 264 0 c145 0 309 -5 365 -10z m-14934 -7680
l-5190 -5190 -132 132 -133 133 5057 5057 5058 5058 265 0 265 0 -5190 -5190z
m13370 130 l5060 -5060 -133 -132 -132 -133 -5193 5193 -5192 5192 265 0 265
0 5060 -5060z"/>
<path d="M13830 12615 c-108 -24 -205 -79 -285 -159 -129 -131 -183 -256 -192
-447 -12 -240 66 -423 237 -554 118 -90 248 -135 395 -135 185 0 306 50 436
180 138 137 193 273 193 475 -1 124 -18 205 -66 303 -69 140 -219 273 -363
321 -90 30 -260 38 -355 16z"/>
<path d="M3440 12386 l0 -196 118 0 c189 0 275 38 302 134 26 95 -10 182 -93
225 -44 22 -64 25 -188 29 l-139 5 0 -197z"/>
<path d="M6526 12389 c-29 -71 -236 -608 -236 -613 0 -3 114 -6 254 -6 l254 0
-125 322 c-68 178 -126 325 -129 327 -2 2 -10 -11 -18 -30z"/>
<path d="M16880 11979 l0 -612 193 6 c260 8 342 32 441 131 107 107 156 250
156 453 0 208 -43 341 -145 452 -113 122 -296 181 -557 181 l-88 0 0 -611z"/>
<path d="M20180 12384 l0 -196 143 4 c118 3 150 7 188 24 112 52 134 222 40
307 -49 44 -106 57 -256 57 l-115 0 0 -196z"/>
</g>
</svg>
